# xmcd
#
# Track frame offsets: 
#        150
#        29625
#        69000
#        101400
#        118575
#        151800
#
# Disc length: 2508 seconds
#
# Revision: 2
# Processed by: cddbd v1.5.2PL0 Copyright (c) Steve Scherf et al.
# Submitted via: ExactAudioCopyFreeDBPlugin 1.0
#
DISCID=4009ca06
DTITLE=Charlie Earland - Whip Appeal
DYEAR=1991
DGENRE=Jazz
TTITLE0=Songbird
TTITLE1=Whip Appeal
TTITLE2=Burner's Desire
TTITLE3=No Brain, No Pain
TTITLE4=Eight After Ten
TTITLE5=More Than Yesterday
EXTD=YEAR: 1991
EXTT0=
EXTT1=
EXTT2=
EXTT3=
EXTT4=
EXTT5=
PLAYORDER=
